<?xml version="1.0" encoding="UTF-8" standalone="no"?>
<!DOCTYPE svg PUBLIC "-//W3C//DTD SVG 1.1//EN" "http://www.w3.org/Graphics/SVG/1.1/DTD/svg11.dtd">
<svg width="100%" height="100%" viewBox="0 0 8001 604" version="1.1" xmlns="http://www.w3.org/2000/svg" xmlns:xlink="http://www.w3.org/1999/xlink" xml:space="preserve" xmlns:serif="http://www.serif.com/" style="fill-rule:evenodd;clip-rule:evenodd;stroke-linejoin:round;stroke-miterlimit:2;">
    <g transform="matrix(1,0,0,1,-2633,-2196)">
        <g transform="matrix(1.33886,0,0,1.06151,-873.462,-148.879)">
            <path d="M8595,2272.26C8595,2237.35 8572.52,2209 8544.84,2209L2669.16,2209C2641.47,2209 2619,2237.35 2619,2272.26L2619,2714.74C2619,2749.65 2641.47,2778 2669.16,2778L8544.84,2778C8572.52,2778 8595,2749.65 8595,2714.74L8595,2272.26Z"/>
        </g>
        <g transform="matrix(0.9535,0,0,0.926186,2403.67,188.054)">
            <path d="M8595,2253.84C8595,2229.09 8575.48,2209 8551.44,2209L2662.56,2209C2638.52,2209 2619,2229.09 2619,2253.84L2619,2733.16C2619,2757.91 2638.52,2778 2662.56,2778L8551.44,2778C8575.48,2778 8595,2757.91 8595,2733.16L8595,2253.84Z" style="fill:rgb(235,235,235);"/>
        </g>
        <g transform="matrix(0.610795,0,0,0.926186,3301.21,188.054)">
            <path d="M8595,2255.39C8595,2229.79 8563.48,2209 8524.65,2209L2689.35,2209C2650.52,2209 2619,2229.79 2619,2255.39L2619,2731.61C2619,2757.21 2650.52,2778 2689.35,2778L8524.65,2778C8563.48,2778 8595,2757.21 8595,2731.61L8595,2255.39Z" style="fill:rgb(235,235,235);"/>
        </g>
        <g>
            <g transform="matrix(1,0,0,1.01724,0,-46.1486)">
                <path d="M3401,2330.97C3398.78,2328.79 3396.69,2329 3396.69,2329L3337.68,2329C3337.68,2329 3335.1,2328.92 3333,2330.97C3330.9,2333.01 3331,2335.32 3331,2335.32L3331,2669.94C3331,2669.94 3330.87,2672.89 3333,2675.03C3335.13,2677.17 3337.68,2677 3337.68,2677L3396.63,2677C3396.63,2677 3398.93,2677.09 3401,2675.03C3403.07,2672.98 3403,2670.53 3403,2670.53L3403,2335.18C3403,2335.18 3403.22,2333.14 3401,2330.97Z" style="fill:rgb(21,158,205);"/>
            </g>
            <path d="M3253.89,2323L2916.66,2323C2916.66,2323 2912,2322.97 2910,2325C2908,2327.03 2908,2331.24 2908,2331.24L2908,2383.86C2908,2383.86 2907.68,2387.65 2910,2390C2912.32,2392.35 2915.85,2392 2915.85,2392L3041.78,2392C3041.78,2392 3044.82,2391.88 3047,2394C3049.18,2396.12 3049,2398.56 3049,2398.56L3049,2669.93C3049,2669.93 3048.9,2672.84 3051,2675C3053.1,2677.16 3055.48,2677 3055.48,2677L3113.36,2677C3113.36,2677 3116.75,2677.2 3119,2675C3121.25,2672.8 3121,2669.91 3121,2669.91L3121,2398.54C3121,2398.54 3120.9,2396.09 3123,2394C3125.1,2391.91 3127.63,2392 3127.63,2392L3254.2,2392C3254.2,2392 3257.7,2392.31 3260,2390C3262.3,2387.69 3262,2384.14 3262,2384.14L3262,2330.5C3262,2330.5 3262.33,2327.27 3260,2325C3257.67,2322.73 3253.89,2323 3253.89,2323Z" style="fill:rgb(21,158,205);"/>
            <path d="M4038,2610C4036.87,2608.97 4036,2604.85 4036,2604.85L4036,2533.38C4036,2533.38 4036.93,2530.06 4038,2529C4039.07,2527.94 4042.41,2527 4042.41,2527L4216.8,2527C4216.8,2527 4220.8,2526.17 4222,2525C4223.2,2523.83 4224,2520.01 4224,2520.01L4224,2476.11C4224,2476.11 4224.09,2471.35 4223,2470C4221.91,2468.65 4217.44,2468 4217.44,2468L4043.01,2468C4043.01,2468 4038.17,2467.33 4037,2466C4035.83,2464.67 4036,2460.03 4036,2460.03L4036,2395.73C4036,2395.73 4036.69,2392.11 4038,2391C4039.32,2389.88 4043.93,2389 4043.93,2389L4246.26,2389C4246.26,2389 4251.54,2388.49 4253,2387C4254.46,2385.51 4255,2380.07 4255,2380.07L4255,2331.5C4255,2331.5 4254.75,2326.42 4253,2325C4251.25,2323.58 4244.49,2323 4244.49,2323L3973.44,2323C3973.44,2323 3967.57,2323.3 3966,2325C3964.43,2326.7 3964,2333.19 3964,2333.19L3964,2669.62C3964,2669.62 3963.86,2673.77 3965,2675C3966.14,2676.23 3970.82,2677 3970.82,2677L4248.4,2677C4248.4,2677 4252.9,2676.18 4254,2675C4255.1,2673.82 4255,2669.93 4255,2669.93L4255,2617.72C4255,2617.72 4254.26,2613.12 4253,2612C4251.73,2610.88 4247.41,2611 4247.41,2611L4042.76,2611C4042.76,2611 4039.13,2611.03 4038,2610Z" style="fill:rgb(21,158,205);"/>
            <path d="M4478.2,2430.08L4550,2326.9C4550,2326.9 4551.95,2324.65 4553.02,2324C4554.03,2323.39 4556.43,2323 4556.43,2323L4627.1,2323C4627.1,2323 4629.22,2322.73 4629.74,2324C4630.19,2325.11 4628.28,2327.89 4628.28,2327.89L4516.87,2485.42L4646.92,2671.97C4646.92,2671.97 4649.08,2674.33 4648.74,2676C4648.59,2676.74 4644.9,2677 4644.9,2677L4578.81,2677C4578.81,2677 4576.06,2676.57 4574.02,2675C4573.12,2674.31 4572.61,2673.59 4572.61,2673.59L4478.2,2540.1L4383.82,2673.54C4383.82,2673.54 4382.4,2675.47 4381.37,2676C4380.26,2676.58 4377.15,2677 4377.15,2677L4312.5,2677.01C4312.5,2677.01 4309.36,2677.2 4308.66,2675C4308.1,2673.25 4310.24,2669.87 4310.24,2669.87L4439.53,2485.42L4328.42,2328.32C4328.42,2328.32 4327.1,2325.89 4328.66,2324C4329.33,2323.19 4331.8,2323 4331.8,2323L4399.05,2323C4399.05,2323 4402.22,2323.38 4403.37,2324C4404.47,2324.59 4405.96,2326.71 4405.96,2326.71L4478.2,2430.08Z" style="fill:rgb(21,158,205);"/>
            <path d="M3590.34,2323C3590.34,2323 3594.52,2323.18 3595.74,2323.99C3596.93,2324.79 3597.62,2327.89 3597.62,2327.89L3682.3,2547.9L3767.22,2328.28C3767.22,2328.28 3768.95,2324.88 3770.26,2324C3771.57,2323.12 3775.06,2323 3775.06,2323L3838,2323C3838,2323 3839.66,2322.53 3841.34,2323.99C3841.82,2324.41 3842.07,2325.74 3842.07,2325.74L3887.79,2672.83C3887.79,2672.83 3887.99,2674.31 3887.34,2676C3887,2676.89 3883.87,2677 3883.87,2677L3823.74,2677C3823.74,2677 3821.4,2676.62 3820.63,2676C3819.85,2675.38 3819.1,2673.3 3819.1,2673.3L3789.86,2467.74L3715.57,2672.6C3715.57,2672.6 3714.21,2675.28 3712.98,2676C3711.72,2676.73 3708.02,2677 3708.02,2677L3664.37,2677C3664.37,2677 3659.89,2676.81 3658.63,2676C3657.42,2675.23 3656.77,2672.13 3656.77,2672.13L3576.94,2462.16L3547.03,2672.4C3547.03,2672.4 3546.26,2675.23 3545.37,2676C3544.48,2676.77 3541.67,2677 3541.67,2677L3483.34,2677.01C3483.34,2677.01 3481.42,2676.93 3479.66,2675C3477.91,2673.08 3478.45,2670.92 3478.45,2670.92L3523.25,2328.89C3523.25,2328.89 3523.96,2326.01 3525.02,2325C3527.11,2323.02 3529.76,2323 3529.76,2323L3590.34,2323Z" style="fill:rgb(21,158,205);"/>
        </g>
        <g>
            <g>
                <path d="M5999,2281C5997.71,2279.62 5992.28,2280 5992.28,2280L5920.53,2280C5920.53,2280 5915.26,2279.65 5914,2281C5912.74,2282.35 5913,2288.12 5913,2288.12L5913,2339.32C5913,2339.32 5913.93,2343.05 5915,2344C5916.07,2344.95 5919.45,2345 5919.45,2345L5994.92,2345C5994.92,2345 5998.15,2344.19 5999,2343C5999.85,2341.81 6000,2337.87 6000,2337.87L6000,2288.26C6000,2288.26 6000.29,2282.38 5999,2281Z"/>
                <g transform="matrix(1,0,0,0.954098,0,114.43)">
                    <rect x="5913" y="2384" width="87" height="305"/>
                </g>
            </g>
            <g transform="matrix(1,0,0,1,1850,0)">
                <path d="M5999,2281C5997.71,2279.62 5992.28,2280 5992.28,2280L5920.53,2280C5920.53,2280 5915.26,2279.65 5914,2281C5912.74,2282.35 5913,2288.12 5913,2288.12L5913,2339.32C5913,2339.32 5913.93,2343.05 5915,2344C5916.07,2344.95 5919.45,2345 5919.45,2345L5994.92,2345C5994.92,2345 5998.15,2344.19 5999,2343C5999.85,2341.81 6000,2337.87 6000,2337.87L6000,2288.26C6000,2288.26 6000.29,2282.38 5999,2281Z"/>
                <g transform="matrix(1,0,0,0.954731,0,112.73)">
                    <rect x="5913" y="2384" width="87" height="305"/>
                </g>
            </g>
            <path d="M5874.01,2680L5874,2522.61C5874,2522.61 5874.99,2512.96 5870,2507C5864.9,2500.9 5855.4,2502 5855.4,2502L5493,2502L5493,2464L5869,2464L5869,2389L5379,2389L5379,2567L5792,2567L5792,2611L5379,2611L5379,2680L5874.01,2680Z"/>
            <path d="M6524,2389L6041,2389L6041,2680L6130,2680L6130,2465L6435,2465L6435,2680L6524,2680L6524,2389Z"/>
            <path d="M6570,2680L7064,2680L7064,2616L6669,2616L6669,2465L7064,2465L7064,2389L6591,2389C6591,2389 6585.65,2387.14 6577,2395C6567.84,2403.33 6570,2413 6570,2413L6570,2680Z"/>
            <rect x="7104" y="2287" width="87" height="393"/>
            <g transform="matrix(1,0,0,0.98376,0,43.5245)">
                <path d="M7726,2384L7231,2384L7231,2465L7600.52,2465C7600.52,2465 7608.34,2463.99 7614,2469C7621.19,2475.36 7619,2479.98 7619,2479.98L7619,2495.69C7619,2495.69 7618.96,2499.45 7614,2505C7609.52,2510.01 7600.43,2510 7600.43,2510L7248.72,2510C7248.72,2510 7241.61,2508.62 7236,2513C7230.54,2517.27 7231,2527.41 7231,2527.41L7231,2680L7726,2680L7726,2384ZM7320,2572L7320,2608L7619,2608L7619,2572L7320,2572Z"/>
            </g>
            <g transform="matrix(1,0,0,0.979798,0,54.1414)">
                <path d="M7891,2383L7891,2680L7975,2680L7975,2483.98C7975,2483.98 7976.12,2472.81 7983,2464C7989.03,2456.29 8000.58,2457 8000.58,2457L8350,2457L8350,2383L7891,2383Z"/>
            </g>
        </g>
        <g>
            <path d="M8853,2345L8761,2345L8761,2345.16C8760.31,2345.32 8759.62,2345.59 8758.98,2345.99L8656.88,2408.94C8653.76,2410.86 8652.79,2414.96 8654.71,2418.08L8683.95,2465.51C8685.88,2468.63 8689.97,2469.6 8693.09,2467.67L8783,2412.24L8783,2642.19L8853,2642.19L8853,2345Z"/>
            <path d="M9284,2345L8928,2345L8928,2642.19L9284,2642.19L9284,2345ZM9217,2416.9C9217,2410.39 9211.71,2405.1 9205.19,2405.1L9006.81,2405.1C9000.29,2405.1 8995,2410.39 8995,2416.9L8995,2570.29C8995,2576.81 9000.29,2582.1 9006.81,2582.1L9205.19,2582.1C9211.71,2582.1 9217,2576.81 9217,2570.29L9217,2416.9Z"/>
            <g transform="matrix(1,0,0,1,441,0)">
                <path d="M9284,2345L8928,2345L8928,2642.19L9284,2642.19L9284,2345ZM9217,2416.9C9217,2410.39 9211.71,2405.1 9205.19,2405.1L9006.81,2405.1C9000.29,2405.1 8995,2410.39 8995,2416.9L8995,2570.29C8995,2576.81 9000.29,2582.1 9006.81,2582.1L9205.19,2582.1C9211.71,2582.1 9217,2576.81 9217,2570.29L9217,2416.9Z"/>
            </g>
            <g transform="matrix(1,0,0,1,882,0)">
                <path d="M9284,2345L8928,2345L8928,2642.19L9284,2642.19L9284,2345ZM9217,2416.9C9217,2410.39 9211.71,2405.1 9205.19,2405.1L9006.81,2405.1C9000.29,2405.1 8995,2410.39 8995,2416.9L8995,2570.29C8995,2576.81 9000.29,2582.1 9006.81,2582.1L9205.19,2582.1C9211.71,2582.1 9217,2576.81 9217,2570.29L9217,2416.9Z"/>
            </g>
        </g>
    </g>
</svg>
